<?xml version="1.0" encoding="UTF-8" standalone="no"?>
<!-- Created with Inkscape (http://www.inkscape.org/) -->

<svg
   version="1.1"
   id="svg651"
   xml:space="preserve"
   width="682.66669"
   height="682.66669"
   viewBox="0 0 682.66669 682.66669"
   xmlns="http://www.w3.org/2000/svg"
   xmlns:svg="http://www.w3.org/2000/svg"><defs
     id="defs655"><clipPath
       clipPathUnits="userSpaceOnUse"
       id="clipPath665"><path
         d="M 0,512 H 512 V 0 H 0 Z"
         id="path663" /></clipPath></defs><g
     id="g657"
     transform="matrix(1.3333333,0,0,-1.3333333,0,682.66667)"><g
       id="g659"><g
         id="g661"
         clip-path="url(#clipPath665)"><g
           id="g667"
           transform="translate(453.7412,10)"><path
             d="m 0,0 h -395.482 c -26.653,0 -48.259,21.606 -48.259,48.259 v 183.482 c 0,26.653 21.606,48.259 48.259,48.259 H 0 c 26.652,0 48.259,-21.606 48.259,-48.259 V 48.259 C 48.259,21.606 26.652,0 0,0"
             style="fill:#8ae89e;fill-opacity:1;fill-rule:nonzero;stroke:none"
             id="path669" /></g><g
           id="g671"
           transform="translate(237.1367,298.7148)"><path
             d="m 0,0 -32.171,-32.171 c -44.6,-44.6 -116.912,-44.6 -161.512,0 h -0.001 c -30.721,30.722 -41.35,76.215 -27.421,117.369 l 0.121,0.358 2.085,50.53 c 0.483,11.706 8.985,21.529 20.501,23.685 14.096,2.641 27.544,-7.022 29.538,-21.225 l 3.74,-26.637 c 1.699,-12.106 16.476,-17.093 25.163,-8.492 l 94.733,93.596 c 8.364,8.363 21.923,8.363 30.286,0 8.364,-8.364 8.364,-21.924 0,-30.287 L -72.83,108.833 Z"
             style="fill:#fbc8a2;fill-opacity:1;fill-rule:nonzero;stroke:none"
             id="path673" /></g><g
           id="g675"
           transform="translate(180.1025,362.7163)"><path
             d="m 0,0 15.729,15.729 c 8.356,8.355 8.356,21.902 0,30.258 -8.356,8.356 -21.903,8.356 -30.259,0 L -30.258,30.259 C -38.614,21.903 -38.614,8.356 -30.258,0 -21.902,-8.355 -8.355,-8.355 0,0"
             style="fill:#fbc8a2;fill-opacity:1;fill-rule:nonzero;stroke:none"
             id="path677" /></g><g
           id="g679"
           transform="translate(202.6094,324.7051)"><path
             d="m 0,0 13.674,13.674 c 8.356,8.356 8.356,21.904 0,30.259 -8.356,8.356 -21.903,8.356 -30.259,0 L -30.259,30.258 C -38.615,21.903 -38.615,8.355 -30.259,0 V 0 C -21.903,-8.356 -8.356,-8.356 0,0"
             style="fill:#fbc8a2;fill-opacity:1;fill-rule:nonzero;stroke:none"
             id="path681" /></g><g
           id="g683"
           transform="translate(226.8848,288.4634)"><path
             d="m 0,0 10.252,10.251 c 8.355,8.356 8.355,21.904 0,30.259 -8.356,8.356 -21.903,8.356 -30.259,0 L -30.259,30.258 C -38.614,21.903 -38.614,8.355 -30.259,0 -21.903,-8.356 -8.355,-8.356 0,0"
             style="fill:#fbc8a2;fill-opacity:1;fill-rule:nonzero;stroke:none"
             id="path685" /></g><g
           id="g687"
           transform="translate(391.0576,290)"><path
             d="m 0,0 h 62.684 c 26.652,0 48.258,-21.606 48.258,-48.259 V -231.741 C 110.942,-258.394 89.336,-280 62.684,-280 h -395.483 c -26.652,0 -48.259,21.606 -48.259,48.259 v 183.482 c 0,16.082 7.867,30.326 19.961,39.096"
             style="fill:none;stroke:#000000;stroke-width:20;stroke-linecap:round;stroke-linejoin:round;stroke-miterlimit:10;stroke-dasharray:none;stroke-opacity:1"
             id="path689" /></g><g
           id="g691"
           transform="translate(230.7041,290)"><path
             d="M 0,0 H 70.354"
             style="fill:none;stroke:#000000;stroke-width:20;stroke-linecap:round;stroke-linejoin:round;stroke-miterlimit:10;stroke-dasharray:none;stroke-opacity:1"
             id="path693" /></g><g
           id="g695"
           transform="translate(232.5654,250)"><path
             d="M 0,0 H -30.276 V -80 H 0"
             style="fill:none;stroke:#000000;stroke-width:20;stroke-linecap:round;stroke-linejoin:round;stroke-miterlimit:10;stroke-dasharray:none;stroke-opacity:1"
             id="path697" /></g><g
           id="g699"
           transform="translate(230.334,210)"><path
             d="M 0,0 H -28.045"
             style="fill:none;stroke:#000000;stroke-width:20;stroke-linecap:round;stroke-linejoin:round;stroke-miterlimit:10;stroke-dasharray:none;stroke-opacity:1"
             id="path701" /></g><g
           id="g703"
           transform="translate(263.207,170)"><path
             d="m 0,0 27.571,78.873 c 0.564,1.501 2.514,1.503 3.08,0.003 L 57.973,0"
             style="fill:none;stroke:#000000;stroke-width:20;stroke-linecap:round;stroke-linejoin:round;stroke-miterlimit:10;stroke-dasharray:none;stroke-opacity:1"
             id="path705" /></g><g
           id="g707"
           transform="translate(271.8057,189.6436)"><path
             d="M 0,0 H 40.914"
             style="fill:none;stroke:#000000;stroke-width:20;stroke-linecap:round;stroke-linejoin:round;stroke-miterlimit:10;stroke-dasharray:none;stroke-opacity:1"
             id="path709" /></g><g
           id="g711"
           transform="translate(390.8848,241.7759)"><path
             d="m 0,0 c 0,0 -14.355,12.067 -31.283,6.967 -15.544,-4.682 -17.718,-22.605 -6.473,-29.936 0,0 11.035,-4.923 23.274,-9.437 29.461,-10.867 16.77,-39.37 -6.947,-39.37 -8.384,0 -15.818,2.592 -21.588,6.459"
             style="fill:none;stroke:#000000;stroke-width:20;stroke-linecap:round;stroke-linejoin:round;stroke-miterlimit:10;stroke-dasharray:none;stroke-opacity:1"
             id="path713" /></g><g
           id="g715"
           transform="translate(419.3486,250)"><path
             d="M 0,0 21.525,-39.135 42.873,-0.203"
             style="fill:none;stroke:#000000;stroke-width:20;stroke-linecap:round;stroke-linejoin:round;stroke-miterlimit:10;stroke-dasharray:none;stroke-opacity:1"
             id="path717" /></g><g
           id="g719"
           transform="translate(440.7891,170)"><path
             d="M 0,0 0.085,40.865"
             style="fill:none;stroke:#000000;stroke-width:20;stroke-linecap:round;stroke-linejoin:round;stroke-miterlimit:10;stroke-dasharray:none;stroke-opacity:1"
             id="path721" /></g><g
           id="g723"
           transform="translate(462,130)"><path
             d="M 0,0 H -32.847 V -80 H 0"
             style="fill:none;stroke:#000000;stroke-width:20;stroke-linecap:round;stroke-linejoin:round;stroke-miterlimit:10;stroke-dasharray:none;stroke-opacity:1"
             id="path725" /></g><g
           id="g727"
           transform="translate(459.5781,90)"><path
             d="M 0,0 H -30.425"
             style="fill:none;stroke:#000000;stroke-width:20;stroke-linecap:round;stroke-linejoin:round;stroke-miterlimit:10;stroke-dasharray:none;stroke-opacity:1"
             id="path729" /></g><g
           id="g731"
           transform="translate(247.8057,129.3242)"><path
             d="m 0,0 v -57.779 c 0,-8.095 4.016,-13.545 10.837,-17.904 3.322,-2.122 7.518,-3.634 12.733,-3.641 4.516,-0.007 8.29,1.039 11.411,2.611 C 42.932,-72.709 48,-66.63 48,-57.729 V 0"
             style="fill:none;stroke:#000000;stroke-width:20;stroke-linecap:round;stroke-linejoin:round;stroke-miterlimit:10;stroke-dasharray:none;stroke-opacity:1"
             id="path733" /></g><g
           id="g735"
           transform="translate(382.4443,121.7759)"><path
             d="m 0,0 c 0,0 -14.355,12.067 -31.283,6.967 -15.544,-4.682 -17.718,-22.605 -6.473,-29.936 0,0 11.035,-4.923 23.274,-9.437 29.461,-10.867 16.77,-39.37 -6.947,-39.37 -9.716,0 -18.154,3.481 -24.206,8.392"
             style="fill:none;stroke:#000000;stroke-width:20;stroke-linecap:round;stroke-linejoin:round;stroke-miterlimit:10;stroke-dasharray:none;stroke-opacity:1"
             id="path737" /></g><g
           id="g739"
           transform="translate(50,130)"><path
             d="M 0,0 H 40"
             style="fill:none;stroke:#000000;stroke-width:20;stroke-linecap:round;stroke-linejoin:round;stroke-miterlimit:10;stroke-dasharray:none;stroke-opacity:1"
             id="path741" /></g><g
           id="g743"
           transform="translate(69.9189,127.4453)"><path
             d="M 0,0 V -77.445"
             style="fill:none;stroke:#000000;stroke-width:20;stroke-linecap:round;stroke-linejoin:round;stroke-miterlimit:10;stroke-dasharray:none;stroke-opacity:1"
             id="path745" /></g><g
           id="g747"
           transform="translate(151.0986,50)"><path
             d="m 0,0 h -0.253 c -13.694,0 -24.795,11.101 -24.795,24.795 v 30.41 C -25.048,68.899 -13.947,80 -0.253,80 H 0 C 13.694,80 24.795,68.899 24.795,55.205 V 24.795 C 24.795,11.101 13.694,0 0,0 Z"
             style="fill:none;stroke:#000000;stroke-width:20;stroke-linecap:round;stroke-linejoin:round;stroke-miterlimit:10;stroke-dasharray:none;stroke-opacity:1"
             id="path749" /></g><g
           id="g751"
           transform="translate(237.1367,298.7148)"><path
             d="m 0,0 -32.171,-32.171 c -44.6,-44.6 -116.912,-44.6 -161.512,0 h -0.001 c -30.721,30.722 -41.35,76.215 -27.421,117.369 l 0.121,0.358 2.085,50.53 c 0.483,11.706 8.985,21.529 20.501,23.685 14.096,2.641 27.544,-7.022 29.538,-21.225 l 3.74,-26.637 c 1.699,-12.106 16.476,-17.093 25.163,-8.492 l 94.733,93.596 c 8.364,8.363 21.923,8.363 30.286,0 8.364,-8.364 8.364,-21.924 0,-30.287 L -72.83,108.833"
             style="fill:none;stroke:#000000;stroke-width:20;stroke-linecap:round;stroke-linejoin:round;stroke-miterlimit:10;stroke-dasharray:none;stroke-opacity:1"
             id="path753" /></g><g
           id="g755"
           transform="translate(180.1025,362.7163)"><path
             d="m 0,0 15.729,15.729 c 8.356,8.355 8.356,21.902 0,30.258 -8.356,8.356 -21.903,8.356 -30.259,0 L -30.258,30.259 C -38.614,21.903 -38.614,8.356 -30.258,0 -21.902,-8.355 -8.355,-8.355 0,0 Z"
             style="fill:none;stroke:#000000;stroke-width:20;stroke-linecap:round;stroke-linejoin:round;stroke-miterlimit:10;stroke-dasharray:none;stroke-opacity:1"
             id="path757" /></g><g
           id="g759"
           transform="translate(202.6094,324.7051)"><path
             d="m 0,0 13.674,13.674 c 8.356,8.356 8.356,21.904 0,30.259 -8.356,8.356 -21.903,8.356 -30.259,0 L -30.259,30.258 C -38.615,21.903 -38.615,8.355 -30.259,0 V 0 C -21.903,-8.356 -8.356,-8.356 0,0 Z"
             style="fill:none;stroke:#000000;stroke-width:20;stroke-linecap:round;stroke-linejoin:round;stroke-miterlimit:10;stroke-dasharray:none;stroke-opacity:1"
             id="path761" /></g><g
           id="g763"
           transform="translate(226.8848,288.4634)"><path
             d="m 0,0 10.252,10.251 c 8.355,8.356 8.355,21.904 0,30.259 -8.356,8.356 -21.903,8.356 -30.259,0 L -30.259,30.258 C -38.614,21.903 -38.614,8.355 -30.259,0 -21.903,-8.356 -8.355,-8.356 0,0 Z"
             style="fill:none;stroke:#000000;stroke-width:20;stroke-linecap:round;stroke-linejoin:round;stroke-miterlimit:10;stroke-dasharray:none;stroke-opacity:1"
             id="path765" /></g><g
           id="g767"
           transform="translate(132.8613,502)"><path
             d="M 0,0 -13.081,-19.151"
             style="fill:none;stroke:#000000;stroke-width:20;stroke-linecap:round;stroke-linejoin:round;stroke-miterlimit:10;stroke-dasharray:none;stroke-opacity:1"
             id="path769" /></g><g
           id="g771"
           transform="translate(72.749,502)"><path
             d="M 0,0 10.418,-18.506"
             style="fill:none;stroke:#000000;stroke-width:20;stroke-linecap:round;stroke-linejoin:round;stroke-miterlimit:10;stroke-dasharray:none;stroke-opacity:1"
             id="path773" /></g><g
           id="g775"
           transform="translate(346.0576,290)"><path
             d="M 0,0 V 0"
             style="fill:none;stroke:#000000;stroke-width:20;stroke-linecap:round;stroke-linejoin:round;stroke-miterlimit:10;stroke-dasharray:none;stroke-opacity:1"
             id="path777" /></g></g></g></g></svg>
