<svg width="128" height="128" viewBox="0 0 128 128" fill="none" xmlns="http://www.w3.org/2000/svg">
<g clip-path="url(#clip0_308_43)">
<path d="M96.5158 118.864H75.515C72.1205 118.864 69.3688 116.113 69.3688 112.718C69.3688 109.324 72.1205 106.572 75.515 106.572H96.5158C99.9103 106.572 102.662 109.324 102.662 112.718C102.662 116.113 99.9103 118.864 96.5158 118.864Z" fill="#EDA751"/>
<path opacity="0.2" d="M96.5158 118.864H75.515C72.1205 118.864 69.3688 116.113 69.3688 112.718C69.3688 109.324 72.1205 106.572 75.515 106.572H96.5158C99.9103 106.572 102.662 109.324 102.662 112.718C102.662 116.113 99.9103 118.864 96.5158 118.864Z" fill="#A35F00"/>
<path d="M23.3583 116.957C20.4763 116.957 18.0458 115.997 16.1903 114.877C10.3853 111.372 9.03582 105.665 7.84532 100.629C6.61457 95.423 5.67232 92.127 1.96257 90.0467C0.112072 89.0092 -0.546678 86.6677 0.491072 84.8172C1.52832 82.967 3.86882 82.307 5.72057 83.3457C12.5611 87.1815 14.0918 93.6577 15.3221 98.8612C16.4363 103.574 17.2666 106.552 20.1613 108.3C21.9581 109.384 24.3193 110.129 28.2113 107.43C31.4866 105.158 34.5546 101.373 37.2616 98.034C37.5788 97.6427 37.8891 97.26 38.1923 96.8887C39.5353 95.2455 41.9553 95.0025 43.5976 96.344C45.2406 97.6865 45.4843 100.106 44.1423 101.749C43.8448 102.113 43.5408 102.488 43.2301 102.872C40.3498 106.425 36.7653 110.847 32.5903 113.743C29.1821 116.107 26.0703 116.957 23.3583 116.957Z" fill="#EDA751"/>
<path opacity="0.2" d="M43.5982 96.3443C41.956 95.0028 39.536 95.2457 38.193 96.889C37.89 97.2602 37.5795 97.643 37.2622 98.0342C34.5552 101.374 31.4872 105.159 28.212 107.43C27.582 107.867 26.9925 108.213 26.4387 108.482C27.8287 110.681 29.496 112.707 31.3957 114.517C31.79 114.279 32.1882 114.022 32.591 113.743C36.766 110.847 40.3505 106.425 43.2307 102.872C43.5417 102.489 43.8457 102.114 44.143 101.75C45.485 100.107 45.2412 97.6868 43.5982 96.3443Z" fill="#C18F00"/>
<path d="M5.72173 83.3457C3.86998 82.307 1.52948 82.967 0.492232 84.8172C-0.545518 86.6677 0.113232 89.0092 1.96373 90.0467C2.84473 90.5407 3.56823 91.1045 4.17798 91.745C5.90023 90.6187 7.84923 88.6225 8.90298 85.6312C7.99173 84.8005 6.94273 84.0305 5.72173 83.3457Z" fill="#FCD79D"/>
<path d="M55.1275 118.865C70.7848 118.865 83.4775 107.071 83.4775 92.5223C83.4775 77.9737 70.7848 66.1797 55.1275 66.1797C39.4703 66.1797 26.7775 77.9737 26.7775 92.5223C26.7775 107.071 39.4703 118.865 55.1275 118.865Z" fill="#FCD690"/>
<path opacity="0.1" d="M50.9887 118.584C38.0342 110.078 42.049 92.6465 44.248 85.0232V68.1907C33.9915 72.1557 26.7795 81.5555 26.7795 92.5217C26.7795 105.763 37.2945 116.722 50.9887 118.584Z" fill="#C18F00"/>
<path d="M37.8762 46.844C43.4235 42.1892 47.1272 34.3752 39.3027 22.8242C31.4165 11.182 19.6752 8.2635 10.5085 9.3435C8.24849 9.60975 6.35249 11.2007 5.69774 13.3802C3.04249 22.22 3.87749 34.2897 13.9735 44.0777C23.9907 53.7892 32.329 51.4987 37.8762 46.844Z" fill="#EDA751"/>
<path d="M5.32901 14.7328C3.15226 23.4243 4.38301 34.7795 13.9738 44.0778C22.656 52.4953 30.0758 51.8938 35.5115 48.5538C31.7733 23.1755 15.4425 16.4455 5.32901 14.7328Z" fill="#FF91AB"/>
<path d="M72.3805 46.844C66.8332 42.1892 63.1295 34.3752 70.954 22.8242C78.8402 11.182 90.5817 8.2635 99.7482 9.3435C102.008 9.60975 103.904 11.2007 104.559 13.3802C107.214 22.22 106.379 34.2897 96.2832 44.0777C86.2662 53.7892 77.9277 51.4987 72.3805 46.844Z" fill="#EDA751"/>
<path d="M104.928 14.7328C107.104 23.4243 105.874 34.7795 96.283 44.0778C87.6007 52.4953 80.181 51.8938 74.7452 48.5538C78.4837 23.1755 94.8145 16.4455 104.928 14.7328Z" fill="#FF91AB"/>
<path d="M103.392 53.8695C103.392 75.937 81.7837 85.6022 55.1285 85.6022C28.4732 85.6022 6.86499 75.937 6.86499 53.8695C6.86499 31.802 28.4735 13.9128 55.1285 13.9128C81.7837 13.9128 103.392 31.802 103.392 53.8695Z" fill="#FCD690"/>
<path opacity="0.1" d="M29.358 20.0818C15.8412 27.1628 6.86475 39.6475 6.86475 53.8693C6.86475 72.8393 22.8327 82.6443 44.248 85.023C13.507 66.6608 17.5162 41.9615 29.358 20.0818Z" fill="#C18F00"/>
<path d="M34.825 62.0663C39.6513 62.0663 43.5637 58.9506 43.5637 55.1073C43.5637 51.2639 39.6513 48.1483 34.825 48.1483C29.9987 48.1483 26.0862 51.2639 26.0862 55.1073C26.0862 58.9506 29.9987 62.0663 34.825 62.0663Z" fill="#FF91AB"/>
<path d="M82.1925 62.0663C87.0188 62.0663 90.9312 58.9506 90.9312 55.1073C90.9312 51.2639 87.0188 48.1483 82.1925 48.1483C77.3662 48.1483 73.4537 51.2639 73.4537 55.1073C73.4537 58.9506 77.3662 62.0663 82.1925 62.0663Z" fill="#FF91AB"/>
<path d="M39.9185 50.0403C38.8828 50.0403 38.0435 49.201 38.0435 48.1653V45.0793C38.0435 44.0435 38.8828 43.2043 39.9185 43.2043C40.9543 43.2043 41.7935 44.0435 41.7935 45.0793V48.1653C41.7935 49.201 40.954 50.0403 39.9185 50.0403Z" fill="#495059"/>
<path d="M77.0995 50.0403C76.0637 50.0403 75.2245 49.201 75.2245 48.1653V45.0793C75.2245 44.0435 76.0637 43.2043 77.0995 43.2043C78.135 43.2043 78.9745 44.0435 78.9745 45.0793V48.1653C78.9745 49.201 78.135 50.0403 77.0995 50.0403Z" fill="#495059"/>
<path d="M58.509 52.41C56.0883 52.41 53.7865 51.3618 52.194 49.5338C51.5135 48.753 51.595 47.5688 52.3758 46.8885C53.1563 46.208 54.3408 46.2895 55.021 47.0705C55.9013 48.0808 57.1725 48.66 58.5088 48.66C59.845 48.66 61.116 48.0808 61.9963 47.0705C62.6765 46.2895 63.8608 46.2083 64.6415 46.8885C65.4223 47.5688 65.5038 48.753 64.8235 49.5338C63.2313 51.3615 60.9298 52.41 58.509 52.41Z" fill="#495059"/>
<path d="M22.5035 56.1715C21.6635 56.1715 20.8988 55.6028 20.6858 54.7505C20.4348 53.7458 21.0455 52.728 22.0503 52.4768C24.451 51.877 30.1715 51.4495 32.9573 51.8173C33.9838 51.953 34.706 52.895 34.5705 53.9218C34.4348 54.9483 33.4933 55.6698 32.466 55.535C30.1965 55.2355 24.9448 55.6188 22.9595 56.1148C22.807 56.153 22.654 56.1715 22.5035 56.1715Z" fill="#495059"/>
<path d="M25.2868 66.526C24.7118 66.526 24.1445 66.2623 23.7768 65.7643C23.1618 64.9313 23.3385 63.7572 24.1718 63.1422C26.1623 61.6727 31.2883 59.0977 34.0048 58.3765C35.006 58.1112 36.0325 58.7067 36.2983 59.7075C36.564 60.7085 35.968 61.7352 34.9673 62.001C32.7538 62.5887 28.045 64.944 26.399 66.1592C26.0638 66.4065 25.6733 66.526 25.2868 66.526Z" fill="#495059"/>
<path d="M94.5147 56.1715C94.364 56.1715 94.2112 56.1533 94.0587 56.115C92.0737 55.619 86.8225 55.2358 84.5522 55.5353C83.5275 55.6698 82.5835 54.9488 82.4477 53.922C82.3122 52.8953 83.0345 51.9533 84.061 51.8175C86.8467 51.4493 92.5677 51.8773 94.968 52.477C95.9727 52.7283 96.5835 53.746 96.3325 54.7508C96.1192 55.6025 95.3545 56.1715 94.5147 56.1715Z" fill="#495059"/>
<path d="M91.7312 66.526C91.3442 66.526 90.9542 66.4065 90.6192 66.1592C88.9732 64.9442 84.2642 62.5887 82.051 62.001C81.0502 61.7352 80.4542 60.7085 80.72 59.7075C80.9857 58.7067 82.0115 58.1112 83.0135 58.3765C85.73 59.0977 90.856 61.6727 92.8465 63.1422C93.6797 63.7572 93.8565 64.9313 93.2415 65.7643C92.8735 66.2623 92.3062 66.526 91.7312 66.526Z" fill="#495059"/>
<path d="M76.1295 118.864H55.1285C51.734 118.864 48.9822 116.112 48.9822 112.718C48.9822 109.323 51.734 106.572 55.1285 106.572H76.1295C79.524 106.572 82.2757 109.323 82.2757 112.718C82.2757 116.112 79.524 118.864 76.1295 118.864Z" fill="#EDA751"/>
<path d="M57.6526 82.2799C58.3089 82.3986 58.9566 82.6274 59.5706 82.9729C62.5294 84.6369 63.5784 88.3844 61.9141 91.3431C59.0964 96.3526 51.9726 99.9341 44.9756 99.8594C37.9359 99.7831 31.9421 96.0799 28.5284 89.6961C26.9276 86.7026 28.0569 82.9786 31.0501 81.3779C34.0431 79.7771 37.7676 80.9061 39.3684 83.8996C40.6321 86.2629 42.3454 87.4261 44.7594 87.5559C47.8666 87.7249 50.6786 86.0529 51.2146 85.2904C52.5384 82.9631 55.1556 81.8276 57.6526 82.2799ZM51.2004 85.3164C51.2006 85.3159 51.2009 85.3154 51.2014 85.3146C51.2011 85.3151 51.2006 85.3159 51.2004 85.3164Z" fill="#EDA751"/>
<g clip-path="url(#clip1_308_43)">
<path d="M64.5 112.355C79.3319 112.355 91.3555 100.332 91.3555 85.5C91.3555 70.6681 79.3319 58.6445 64.5 58.6445C49.6681 58.6445 37.6445 70.6681 37.6445 85.5C37.6445 100.332 49.6681 112.355 64.5 112.355Z" fill="#8B43E7"/>
<path d="M64.5 72.0723C57.0879 72.0723 51.0723 78.0879 51.0723 85.5C51.0723 92.9121 57.0879 98.9277 64.5 98.9277C71.9121 98.9277 77.9277 92.9121 77.9277 85.5C77.9277 78.0879 71.9121 72.0723 64.5 72.0723ZM69.7852 86.1338L62.2334 89.958C61.7178 90.2158 61.1162 89.8398 61.1162 89.2598L61.1055 81.7402C61.1055 81.1602 61.707 80.7842 62.2119 81.042L69.7744 84.748C70.3545 85.0273 70.3545 85.8437 69.7852 86.1338Z" fill="white"/>
</g>
<path d="M91.79 82.3087C95.9109 82.3087 99.2515 78.9681 99.2515 74.8472C99.2515 70.7264 95.9109 67.3857 91.79 67.3857C87.6691 67.3857 84.3285 70.7264 84.3285 74.8472C84.3285 78.9681 87.6691 82.3087 91.79 82.3087Z" fill="#EDA751"/>
</g>
<defs>
<clipPath id="clip0_308_43">
<rect width="128" height="128" fill="white"/>
</clipPath>
<clipPath id="clip1_308_43">
<rect width="55" height="55" fill="white" transform="translate(37 58)"/>
</clipPath>
</defs>
</svg>
